<svg fill="none" height="500" viewBox="0 0 500 500" width="500" xmlns="http://www.w3.org/2000/svg"><path d="m183.79 460.4c58.769 0 106.41-7.607 106.41-16.99s-47.641-16.99-106.41-16.99-106.4101 7.607-106.4101 16.99 47.6411 16.99 106.4101 16.99z" fill="#ebebeb"/><path d="m332.39 176.42h-65.02v245.17h65.02z" fill="#37474f"/><path d="m452.05 176.42h-119.66v245.17h119.66z" fill="#455a64"/><path d="m444.58 389.79h-103.21v23.84h103.21z" fill="#37474f"/><path d="m404.46 393.73h-58.75v2.01h58.75z" fill="#455a64"/><path d="m404.46 397.22h-58.75v2.01h58.75z" fill="#455a64"/><path d="m404.46 400.71h-58.75v2.01h58.75z" fill="#455a64"/><path d="m404.46 404.19h-58.75v2.01h58.75z" fill="#455a64"/><path d="m404.46 407.68h-58.75v2.01h58.75z" fill="#455a64"/><g fill="#144ed0"><path d="m415.17 395.73c0 .396-.117.782-.337 1.111s-.532.585-.898.737c-.365.151-.767.191-1.155.114-.388-.078-.745-.268-1.024-.548-.28-.28-.47-.636-.548-1.024-.077-.388-.037-.79.114-1.155.152-.366.408-.678.737-.898s.715-.337 1.111-.337c.53 0 1.039.211 1.414.586s.586.884.586 1.414z"/><path d="m421.75 395.73c0 .396-.117.782-.337 1.111s-.532.585-.898.737c-.365.151-.767.191-1.155.114-.388-.078-.745-.268-1.024-.548-.28-.28-.47-.636-.548-1.024-.077-.388-.037-.79.114-1.155.152-.366.408-.678.737-.898s.715-.337 1.111-.337c.53 0 1.039.211 1.414.586s.586.884.586 1.414z"/><path d="m428.33 395.73c0 .396-.117.782-.337 1.111s-.532.585-.898.737c-.365.151-.767.191-1.155.114-.388-.078-.744-.268-1.024-.548s-.47-.636-.547-1.024c-.078-.388-.038-.79.113-1.155.152-.366.408-.678.737-.898s.715-.337 1.111-.337c.53 0 1.039.211 1.414.586s.586.884.586 1.414z"/><path d="m434.9 395.73c0 .396-.117.782-.337 1.111s-.532.585-.898.737c-.365.151-.767.191-1.155.114-.388-.078-.745-.268-1.024-.548-.28-.28-.471-.636-.548-1.024s-.037-.79.114-1.155c.152-.366.408-.678.737-.898s.715-.337 1.111-.337c.53 0 1.039.211 1.414.586s.586.884.586 1.414z"/><path d="m441.48 395.73c0 .396-.117.782-.337 1.111s-.532.585-.898.737c-.365.151-.767.191-1.155.114-.388-.078-.745-.268-1.024-.548-.28-.28-.47-.636-.548-1.024-.077-.388-.037-.79.114-1.155.152-.366.408-.678.737-.898s.715-.337 1.111-.337c.53 0 1.039.211 1.414.586s.586.884.586 1.414z"/><path d="m415.17 401.71c0 .396-.117.782-.337 1.111s-.532.585-.898.737c-.365.151-.767.191-1.155.114-.388-.078-.745-.268-1.024-.548-.28-.28-.47-.636-.548-1.024-.077-.388-.037-.79.114-1.155.152-.366.408-.678.737-.898s.715-.337 1.111-.337c.53 0 1.039.211 1.414.586s.586.884.586 1.414z"/><path d="m421.75 401.71c0 .396-.117.782-.337 1.111s-.532.585-.898.737c-.365.151-.767.191-1.155.114-.388-.078-.745-.268-1.024-.548-.28-.28-.47-.636-.548-1.024-.077-.388-.037-.79.114-1.155.152-.366.408-.678.737-.898s.715-.337 1.111-.337c.53 0 1.039.211 1.414.586s.586.884.586 1.414z"/><path d="m428.33 401.71c0 .396-.117.782-.337 1.111s-.532.585-.898.737c-.365.151-.767.191-1.155.114-.388-.078-.744-.268-1.024-.548s-.47-.636-.547-1.024c-.078-.388-.038-.79.113-1.155.152-.366.408-.678.737-.898s.715-.337 1.111-.337c.53 0 1.039.211 1.414.586s.586.884.586 1.414z"/><path d="m434.9 401.71c0 .396-.117.782-.337 1.111s-.532.585-.898.737c-.365.151-.767.191-1.155.114-.388-.078-.745-.268-1.024-.548-.28-.28-.471-.636-.548-1.024s-.037-.79.114-1.155c.152-.366.408-.678.737-.898s.715-.337 1.111-.337c.53 0 1.039.211 1.414.586s.586.884.586 1.414z"/><path d="m441.48 401.71c0 .396-.117.782-.337 1.111s-.532.585-.898.737c-.365.151-.767.191-1.155.114-.388-.078-.745-.268-1.024-.548-.28-.28-.47-.636-.548-1.024-.077-.388-.037-.79.114-1.155.152-.366.408-.678.737-.898s.715-.337 1.111-.337c.53 0 1.039.211 1.414.586s.586.884.586 1.414z"/><path d="m413.18 409.7c1.105 0 2-.895 2-2s-.895-2-2-2c-1.104 0-2 .895-2 2s.896 2 2 2z"/><path d="m421.75 407.7c0 .396-.117.782-.337 1.111s-.532.585-.898.737c-.365.151-.767.191-1.155.113-.388-.077-.745-.267-1.024-.547-.28-.28-.47-.636-.548-1.024-.077-.388-.037-.79.114-1.155.152-.366.408-.678.737-.898s.715-.337 1.111-.337c.53 0 1.039.211 1.414.586s.586.884.586 1.414z"/><path d="m426.33 409.7c1.105 0 2-.895 2-2s-.895-2-2-2c-1.104 0-2 .895-2 2s.896 2 2 2z"/><path d="m434.9 407.7c0 .396-.117.782-.337 1.111s-.532.585-.898.737c-.365.151-.767.191-1.155.113-.388-.077-.745-.267-1.024-.547-.28-.28-.471-.636-.548-1.024s-.037-.79.114-1.155c.152-.366.408-.678.737-.898s.715-.337 1.111-.337c.53 0 1.039.211 1.414.586s.586.884.586 1.414z"/><path d="m441.48 407.7c0 .396-.117.782-.337 1.111s-.532.585-.898.737c-.365.151-.767.191-1.155.113-.388-.077-.745-.267-1.024-.547-.28-.28-.47-.636-.548-1.024-.077-.388-.037-.79.114-1.155.152-.366.408-.678.737-.898s.715-.337 1.111-.337c.53 0 1.039.211 1.414.586s.586.884.586 1.414z"/></g><path d="m408.55 393.73h-1.15v15.96h1.15z" fill="#263238"/><path d="m444.58 361.07h-103.21v23.84h103.21z" fill="#37474f"/><path d="m404.46 365h-58.75v2.01h58.75z" fill="#455a64"/><path d="m404.46 368.49h-58.75v2.01h58.75z" fill="#455a64"/><path d="m404.46 371.98h-58.75v2.01h58.75z" fill="#455a64"/><path d="m404.46 375.47h-58.75v2.01h58.75z" fill="#455a64"/><path d="m404.46 378.95h-58.75v2.01h58.75z" fill="#455a64"/><path d="m415.17 367c0 .396-.117.782-.337 1.111s-.532.585-.898.737c-.365.151-.767.191-1.155.114-.388-.078-.745-.268-1.024-.548-.28-.279-.47-.636-.548-1.024-.077-.388-.037-.79.114-1.155.152-.366.408-.678.737-.898s.715-.337 1.111-.337c.53 0 1.039.211 1.414.586s.586.884.586 1.414z" fill="#144ed0"/><path d="m421.75 367c0 .396-.117.782-.337 1.111s-.532.585-.898.737c-.365.151-.767.191-1.155.114-.388-.078-.745-.268-1.024-.548-.28-.279-.47-.636-.548-1.024-.077-.388-.037-.79.114-1.155.152-.366.408-.678.737-.898s.715-.337 1.111-.337c.53 0 1.039.211 1.414.586s.586.884.586 1.414z" fill="#144ed0"/><path d="m428.33 367c0 .396-.117.782-.337 1.111s-.532.585-.898.737c-.365.151-.767.191-1.155.114-.388-.078-.744-.268-1.024-.548-.28-.279-.47-.636-.547-1.024-.078-.388-.038-.79.113-1.155.152-.366.408-.678.737-.898s.715-.337 1.111-.337c.53 0 1.039.211 1.414.586s.586.884.586 1.414z" fill="#144ed0"/><path d="m434.9 367c0 .396-.117.782-.337 1.111s-.532.585-.898.737c-.365.151-.767.191-1.155.114-.388-.078-.745-.268-1.024-.548-.28-.279-.471-.636-.548-1.024s-.037-.79.114-1.155c.152-.366.408-.678.737-.898s.715-.337 1.111-.337c.53 0 1.039.211 1.414.586s.586.884.586 1.414z" fill="#144ed0"/><path d="m441.48 367c0 .396-.117.782-.337 1.111s-.532.585-.898.737c-.365.151-.767.191-1.155.114-.388-.078-.745-.268-1.024-.548-.28-.279-.47-.636-.548-1.024-.077-.388-.037-.79.114-1.155.152-.366.408-.678.737-.898s.715-.337 1.111-.337c.53 0 1.039.211 1.414.586s.586.884.586 1.414z" fill="#144ed0"/><path d="m415.17 373c0 .396-.117.782-.337 1.111s-.532.585-.898.737c-.365.151-.767.191-1.155.114-.388-.078-.745-.268-1.024-.548-.28-.279-.47-.636-.548-1.024-.077-.388-.037-.79.114-1.155.152-.366.408-.678.737-.898s.715-.337 1.111-.337c.53 0 1.039.211 1.414.586s.586.884.586 1.414z" fill="#144ed0"/><path d="m421.75 373c0 .396-.117.782-.337 1.111s-.532.585-.898.737c-.365.151-.767.191-1.155.114-.388-.078-.745-.268-1.024-.548-.28-.279-.47-.636-.548-1.024-.077-.388-.037-.79.114-1.155.152-.366.408-.678.737-.898s.715-.337 1.111-.337c.53 0 1.039.211 1.414.586s.586.884.586 1.414z" fill="#144ed0"/><path d="m428.33 373c0 .396-.117.782-.337 1.111s-.532.585-.898.737c-.365.151-.767.191-1.155.114-.388-.078-.744-.268-1.024-.548-.28-.279-.47-.636-.547-1.024-.078-.388-.038-.79.113-1.155.152-.366.408-.678.737-.898s.715-.337 1.111-.337c.53 0 1.039.211 1.414.586s.586.884.586 1.414z" fill="#144ed0"/><path d="m434.9 373c0 .396-.117.782-.337 1.111s-.532.585-.898.737c-.365.151-.767.191-1.155.114-.388-.078-.745-.268-1.024-.548-.28-.279-.471-.636-.548-1.024s-.037-.79.114-1.155c.152-.366.408-.678.737-.898s.715-.337 1.111-.337c.53 0 1.039.211 1.414.586s.586.884.586 1.414z" fill="#144ed0"/><path d="m441.48 373c0 .396-.117.782-.337 1.111s-.532.585-.898.737c-.365.151-.767.191-1.155.114-.388-.078-.745-.268-1.024-.548-.28-.279-.47-.636-.548-1.024-.077-.388-.037-.79.114-1.155.152-.366.408-.678.737-.898s.715-.337 1.111-.337c.53 0 1.039.211 1.414.586s.586.884.586 1.414z" fill="#144ed0"/><path d="m415.17 379c0 .396-.117.782-.337 1.111s-.532.585-.898.737c-.365.151-.767.191-1.155.114-.388-.078-.745-.268-1.024-.548-.28-.279-.47-.636-.548-1.024-.077-.388-.037-.79.114-1.155.152-.366.408-.678.737-.898s.715-.337 1.111-.337c.53 0 1.039.211 1.414.586s.586.884.586 1.414z" fill="#144ed0"/><path d="m421.75 379c0 .396-.117.782-.337 1.111s-.532.585-.898.737c-.365.151-.767.191-1.155.114-.388-.078-.745-.268-1.024-.548-.28-.279-.47-.636-.548-1.024-.077-.388-.037-.79.114-1.155.152-.366.408-.678.737-.898s.715-.337 1.111-.337c.53 0 1.039.211 1.414.586s.586.884.586 1.414z" fill="#144ed0"/><path d="m428.33 379c0 .396-.117.782-.337 1.111s-.532.585-.898.737c-.365.151-.767.191-1.155.114-.388-.078-.744-.268-1.024-.548-.28-.279-.47-.636-.547-1.024-.078-.388-.038-.79.113-1.155.152-.366.408-.678.737-.898s.715-.337 1.111-.337c.53 0 1.039.211 1.414.586s.586.884.586 1.414z" fill="#144ed0"/><path d="m434.9 379c0 .396-.117.782-.337 1.111s-.532.585-.898.737c-.365.151-.767.191-1.155.114-.388-.078-.745-.268-1.024-.548-.28-.279-.471-.636-.548-1.024s-.037-.79.114-1.155c.152-.366.408-.678.737-.898s.715-.337 1.111-.337c.53 0 1.039.211 1.414.586s.586.884.586 1.414z" fill="#144ed0"/><path d="m441.48 379c0 .396-.117.782-.337 1.111s-.532.585-.898.737c-.365.151-.767.191-1.155.114-.388-.078-.745-.268-1.024-.548-.28-.279-.47-.636-.548-1.024-.077-.388-.037-.79.114-1.155.152-.366.408-.678.737-.898s.715-.337 1.111-.337c.53 0 1.039.211 1.414.586s.586.884.586 1.414z" fill="#144ed0"/><path d="m408.55 365h-1.15v15.96h1.15z" fill="#263238"/><path d="m444.58 332.34h-103.21v23.84h103.21z" fill="#37474f"/><path d="m404.46 336.28h-58.75v2.01h58.75z" fill="#455a64"/><path d="m404.46 339.76h-58.75v2.01h58.75z" fill="#455a64"/><path d="m404.46 343.25h-58.75v2.01h58.75z" fill="#455a64"/><path d="m404.46 346.74h-58.75v2.01h58.75z" fill="#455a64"/><path d="m404.46 350.23h-58.75v2.01h58.75z" fill="#455a64"/><path d="m413.18 340.27c1.105 0 2-.895 2-2s-.895-2-2-2c-1.104 0-2 .895-2 2s.896 2 2 2z" fill="#144ed0"/><path d="m421.75 338.27c0 .396-.117.782-.337 1.111s-.532.585-.898.737c-.365.151-.767.191-1.155.114-.388-.078-.745-.268-1.024-.548-.28-.279-.47-.636-.548-1.024-.077-.388-.037-.79.114-1.155.152-.366.408-.678.737-.898s.715-.337 1.111-.337c.53 0 1.039.211 1.414.586s.586.884.586 1.414z" fill="#144ed0"/><path d="m426.33 340.27c1.105 0 2-.895 2-2s-.895-2-2-2c-1.104 0-2 .895-2 2s.896 2 2 2z" fill="#144ed0"/><path d="m434.9 338.27c0 .396-.117.782-.337 1.111s-.532.585-.898.737c-.365.151-.767.191-1.155.114-.388-.078-.745-.268-1.024-.548-.28-.279-.471-.636-.548-1.024s-.037-.79.114-1.155c.152-.366.408-.678.737-.898s.715-.337 1.111-.337c.53 0 1.039.211 1.414.586s.586.884.586 1.414z" fill="#144ed0"/><path d="m441.48 338.27c0 .396-.117.782-.337 1.111s-.532.585-.898.737c-.365.151-.767.191-1.155.114-.388-.078-.745-.268-1.024-.548-.28-.279-.47-.636-.548-1.024-.077-.388-.037-.79.114-1.155.152-.366.408-.678.737-.898s.715-.337 1.111-.337c.53 0 1.039.211 1.414.586s.586.884.586 1.414z" fill="#144ed0"/><path d="m415.17 344.26c0 .396-.117.782-.337 1.111s-.532.585-.898.737c-.365.151-.767.191-1.155.114-.388-.078-.745-.268-1.024-.548-.28-.279-.47-.636-.548-1.024-.077-.388-.037-.79.114-1.155.152-.366.408-.678.737-.898s.715-.337 1.111-.337c.53 0 1.039.211 1.414.586s.586.884.586 1.414z" fill="#144ed0"/><path d="m421.75 344.26c0 .396-.117.782-.337 1.111s-.532.585-.898.737c-.365.151-.767.191-1.155.114-.388-.078-.745-.268-1.024-.548-.28-.279-.47-.636-.548-1.024-.077-.388-.037-.79.114-1.155.152-.366.408-.678.737-.898s.715-.337 1.111-.337c.53 0 1.039.211 1.414.586s.586.884.586 1.414z" fill="#144ed0"/><path d="m428.33 344.26c0 .396-.117.782-.337 1.111s-.532.585-.898.737c-.365.151-.767.191-1.155.114-.388-.078-.744-.268-1.024-.548-.28-.279-.47-.636-.547-1.024-.078-.388-.038-.79.113-1.155.152-.366.408-.678.737-.898s.715-.337 1.111-.337c.53 0 1.039.211 1.414.586s.586.884.586 1.414z" fill="#144ed0"/><path d="m434.9 344.26c0 .396-.117.782-.337 1.111s-.532.585-.898.737c-.365.151-.767.191-1.155.114-.388-.078-.745-.268-1.024-.548-.28-.279-.471-.636-.548-1.024s-.037-.79.114-1.155c.152-.366.408-.678.737-.898s.715-.337 1.111-.337c.53 0 1.039.211 1.414.586s.586.884.586 1.414z" fill="#144ed0"/><path d="m441.48 344.26c0 .396-.117.782-.337 1.111s-.532.585-.898.737c-.365.151-.767.191-1.155.114-.388-.078-.745-.268-1.024-.548-.28-.279-.47-.636-.548-1.024-.077-.388-.037-.79.114-1.155.152-.366.408-.678.737-.898s.715-.337 1.111-.337c.53 0 1.039.211 1.414.586s.586.884.586 1.414z" fill="#144ed0"/><path d="m415.17 350.24c0 .396-.117.782-.337 1.111s-.532.585-.898.737c-.365.151-.767.191-1.155.114-.388-.078-.745-.268-1.024-.548-.28-.279-.47-.636-.548-1.024-.077-.388-.037-.79.114-1.155.152-.366.408-.678.737-.898s.715-.337 1.111-.337c.53 0 1.039.211 1.414.586s.586.884.586 1.414z" fill="#144ed0"/><path d="m421.75 350.24c0 .396-.117.782-.337 1.111s-.532.585-.898.737c-.365.151-.767.191-1.155.114-.388-.078-.745-.268-1.024-.548-.28-.279-.47-.636-.548-1.024-.077-.388-.037-.79.114-1.155.152-.366.408-.678.737-.898s.715-.337 1.111-.337c.53 0 1.039.211 1.414.586s.586.884.586 1.414z" fill="#144ed0"/><path d="m428.33 350.24c0 .396-.117.782-.337 1.111s-.532.585-.898.737c-.365.151-.767.191-1.155.114-.388-.078-.744-.268-1.024-.548-.28-.279-.47-.636-.547-1.024-.078-.388-.038-.79.113-1.155.152-.366.408-.678.737-.898s.715-.337 1.111-.337c.53 0 1.039.211 1.414.586s.586.884.586 1.414z" fill="#144ed0"/><path d="m434.9 350.24c0 .396-.117.782-.337 1.111s-.532.585-.898.737c-.365.151-.767.191-1.155.114-.388-.078-.745-.268-1.024-.548-.28-.279-.471-.636-.548-1.024s-.037-.79.114-1.155c.152-.366.408-.678.737-.898s.715-.337 1.111-.337c.53 0 1.039.211 1.414.586s.586.884.586 1.414z" fill="#144ed0"/><path d="m441.48 350.24c0 .396-.117.782-.337 1.111s-.532.585-.898.737c-.365.151-.767.191-1.155.114-.388-.078-.745-.268-1.024-.548-.28-.279-.47-.636-.548-1.024-.077-.388-.037-.79.114-1.155.152-.366.408-.678.737-.898s.715-.337 1.111-.337c.53 0 1.039.211 1.414.586s.586.884.586 1.414z" fill="#144ed0"/><path d="m408.55 336.28h-1.15v15.96h1.15z" fill="#263238"/><path d="m444.58 303.61h-103.21v23.84h103.21z" fill="#37474f"/><path d="m404.46 307.55h-58.75v2.01h58.75z" fill="#455a64"/><path d="m404.46 311.03h-58.75v2.01h58.75z" fill="#455a64"/><path d="m404.46 314.52h-58.75v2.01h58.75z" fill="#455a64"/><path d="m404.46 318.01h-58.75v2.01h58.75z" fill="#455a64"/><path d="m404.46 321.5h-58.75v2.01h58.75z" fill="#455a64"/><path d="m415.17 309.54c0 .396-.117.782-.337 1.111s-.532.585-.898.737c-.365.151-.767.191-1.155.114-.388-.078-.745-.268-1.024-.548-.28-.279-.47-.636-.548-1.024-.077-.388-.037-.79.114-1.155.152-.366.408-.678.737-.898s.715-.337 1.111-.337c.53 0 1.039.211 1.414.586s.586.884.586 1.414z" fill="#144ed0"/><path d="m421.75 309.54c0 .396-.117.782-.337 1.111s-.532.585-.898.737c-.365.151-.767.191-1.155.114-.388-.078-.745-.268-1.024-.548-.28-.279-.47-.636-.548-1.024-.077-.388-.037-.79.114-1.155.152-.366.408-.678.737-.898s.715-.337 1.111-.337c.53 0 1.039.211 1.414.586s.586.884.586 1.414z" fill="#144ed0"/><path d="m428.33 309.54c0 .396-.117.782-.337 1.111s-.532.585-.898.737c-.365.151-.767.191-1.155.114-.388-.078-.744-.268-1.024-.548-.28-.279-.47-.636-.547-1.024-.078-.388-.038-.79.113-1.155.152-.366.408-.678.737-.898s.715-.337 1.111-.337c.53 0 1.039.211 1.414.586s.586.884.586 1.414z" fill="#144ed0"/><path d="m434.9 309.54c0 .396-.117.782-.337 1.111s-.532.585-.898.737c-.365.151-.767.191-1.155.114-.388-.078-.745-.268-1.024-.548-.28-.279-.471-.636-.548-1.024s-.037-.79.114-1.155c.152-.366.408-.678.737-.898s.715-.337 1.111-.337c.53 0 1.039.211 1.414.586s.586.884.586 1.414z" fill="#144ed0"/><path d="m441.48 309.54c0 .396-.117.782-.337 1.111s-.532.585-.898.737c-.365.151-.767.191-1.155.114-.388-.078-.745-.268-1.024-.548-.28-.279-.47-.636-.548-1.024-.077-.388-.037-.79.114-1.155.152-.366.408-.678.737-.898s.715-.337 1.111-.337c.53 0 1.039.211 1.414.586s.586.884.586 1.414z" fill="#144ed0"/><path d="m413.18 317.53c1.105 0 2-.895 2-2s-.895-2-2-2c-1.104 0-2 .895-2 2s.896 2 2 2z" fill="#144ed0"/><path d="m421.75 315.53c0 .396-.117.782-.337 1.111s-.532.585-.898.737c-.365.151-.767.191-1.155.114-.388-.078-.745-.268-1.024-.548-.28-.279-.47-.636-.548-1.024-.077-.388-.037-.79.114-1.155.152-.366.408-.678.737-.898s.715-.337 1.111-.337c.53 0 1.039.211 1.414.586s.586.884.586 1.414z" fill="#144ed0"/><path d="m426.33 317.53c1.105 0 2-.895 2-2s-.895-2-2-2c-1.104 0-2 .895-2 2s.896 2 2 2z" fill="#144ed0"/><path d="m434.9 315.53c0 .396-.117.782-.337 1.111s-.532.585-.898.737c-.365.151-.767.191-1.155.114-.388-.078-.745-.268-1.024-.548-.28-.279-.471-.636-.548-1.024s-.037-.79.114-1.155c.152-.366.408-.678.737-.898s.715-.337 1.111-.337c.53 0 1.039.211 1.414.586s.586.884.586 1.414z" fill="#144ed0"/><path d="m441.48 315.53c0 .396-.117.782-.337 1.111s-.532.585-.898.737c-.365.151-.767.191-1.155.114-.388-.078-.745-.268-1.024-.548-.28-.279-.47-.636-.548-1.024-.077-.388-.037-.79.114-1.155.152-.366.408-.678.737-.898s.715-.337 1.111-.337c.53 0 1.039.211 1.414.586s.586.884.586 1.414z" fill="#144ed0"/><path d="m413.18 323.51c1.105 0 2-.895 2-2s-.895-2-2-2c-1.104 0-2 .895-2 2s.896 2 2 2z" fill="#144ed0"/><path d="m421.75 321.51c0 .396-.117.782-.337 1.111s-.532.585-.898.737c-.365.151-.767.191-1.155.114-.388-.078-.745-.268-1.024-.548-.28-.279-.47-.636-.548-1.024-.077-.388-.037-.79.114-1.155.152-.366.408-.678.737-.898s.715-.337 1.111-.337c.53 0 1.039.211 1.414.586s.586.884.586 1.414z" fill="#144ed0"/><path d="m426.33 323.51c1.105 0 2-.895 2-2s-.895-2-2-2c-1.104 0-2 .895-2 2s.896 2 2 2z" fill="#144ed0"/><path d="m434.9 321.51c0 .396-.117.782-.337 1.111s-.532.585-.898.737c-.365.151-.767.191-1.155.114-.388-.078-.745-.268-1.024-.548-.28-.279-.471-.636-.548-1.024s-.037-.79.114-1.155c.152-.366.408-.678.737-.898s.715-.337 1.111-.337c.53 0 1.039.211 1.414.586s.586.884.586 1.414z" fill="#144ed0"/><path d="m441.48 321.51c0 .396-.117.782-.337 1.111s-.532.585-.898.737c-.365.151-.767.191-1.155.114-.388-.078-.745-.268-1.024-.548-.28-.279-.47-.636-.548-1.024-.077-.388-.037-.79.114-1.155.152-.366.408-.678.737-.898s.715-.337 1.111-.337c.53 0 1.039.211 1.414.586s.586.884.586 1.414z" fill="#144ed0"/><path d="m408.55 307.55h-1.15v15.96h1.15z" fill="#263238"/><path d="m444.58 274.88h-103.21v23.84h103.21z" fill="#37474f"/><path d="m404.46 278.82h-58.75v2.01h58.75z" fill="#455a64"/><path d="m404.46 282.31h-58.75v2.01h58.75z" fill="#455a64"/><path d="m404.46 285.79h-58.75v2.01h58.75z" fill="#455a64"/><path d="m404.46 289.28h-58.75v2.01h58.75z" fill="#455a64"/><path d="m404.46 292.77h-58.75v2.01h58.75z" fill="#455a64"/><path d="m413.18 282.82c1.105 0 2-.895 2-2s-.895-2-2-2c-1.104 0-2 .895-2 2s.896 2 2 2z" fill="#144ed0"/><path d="m421.75 280.82c0 .396-.117.782-.337 1.111s-.532.585-.898.737c-.365.151-.767.191-1.155.114-.388-.078-.745-.268-1.024-.548-.28-.28-.47-.636-.548-1.024-.077-.388-.037-.79.114-1.155.152-.366.408-.678.737-.898s.715-.337 1.111-.337c.53 0 1.039.211 1.414.586s.586.884.586 1.414z" fill="#144ed0"/><path d="m426.33 282.82c1.105 0 2-.895 2-2s-.895-2-2-2c-1.104 0-2 .895-2 2s.896 2 2 2z" fill="#144ed0"/><path d="m434.9 280.82c0 .396-.117.782-.337 1.111s-.532.585-.898.737c-.365.151-.767.191-1.155.114-.388-.078-.745-.268-1.024-.548-.28-.28-.471-.636-.548-1.024s-.037-.79.114-1.155c.152-.366.408-.678.737-.898s.715-.337 1.111-.337c.53 0 1.039.211 1.414.586s.586.884.586 1.414z" fill="#144ed0"/><path d="m441.48 280.82c0 .396-.117.782-.337 1.111s-.532.585-.898.737c-.365.151-.767.191-1.155.114-.388-.078-.745-.268-1.024-.548-.28-.28-.47-.636-.548-1.024-.077-.388-.037-.79.114-1.155.152-.366.408-.678.737-.898s.715-.337 1.111-.337c.53 0 1.039.211 1.414.586s.586.884.586 1.414z" fill="#144ed0"/><path d="m413.18 288.8c1.105 0 2-.896 2-2 0-1.105-.895-2-2-2-1.104 0-2 .895-2 2 0 1.104.896 2 2 2z" fill="#144ed0"/><path d="m421.75 286.8c0 .395-.117.782-.337 1.111s-.532.585-.898.737c-.365.151-.767.191-1.155.114-.388-.078-.745-.268-1.024-.548-.28-.28-.47-.636-.548-1.024-.077-.388-.037-.79.114-1.155.152-.366.408-.678.737-.898s.715-.337 1.111-.337c.53 0 1.039.211 1.414.586s.586.883.586 1.414z" fill="#144ed0"/><path d="m426.33 288.8c1.105 0 2-.896 2-2 0-1.105-.895-2-2-2-1.104 0-2 .895-2 2 0 1.104.896 2 2 2z" fill="#144ed0"/><path d="m434.9 286.8c0 .395-.117.782-.337 1.111s-.532.585-.898.737c-.365.151-.767.191-1.155.114-.388-.078-.745-.268-1.024-.548-.28-.28-.471-.636-.548-1.024s-.037-.79.114-1.155c.152-.366.408-.678.737-.898s.715-.337 1.111-.337c.53 0 1.039.211 1.414.586s.586.883.586 1.414z" fill="#144ed0"/><path d="m441.48 286.8c0 .395-.117.782-.337 1.111s-.532.585-.898.737c-.365.151-.767.191-1.155.114-.388-.078-.745-.268-1.024-.548-.28-.28-.47-.636-.548-1.024-.077-.388-.037-.79.114-1.155.152-.366.408-.678.737-.898s.715-.337 1.111-.337c.53 0 1.039.211 1.414.586s.586.883.586 1.414z" fill="#144ed0"/><path d="m415.17 292.79c0 .396-.117.782-.337 1.111s-.532.585-.898.737c-.365.151-.767.191-1.155.114-.388-.078-.745-.268-1.024-.548-.28-.279-.47-.636-.548-1.024-.077-.388-.037-.79.114-1.155.152-.366.408-.678.737-.898s.715-.337 1.111-.337c.53 0 1.039.211 1.414.586s.586.884.586 1.414z" fill="#144ed0"/><path d="m421.75 292.79c0 .396-.117.782-.337 1.111s-.532.585-.898.737c-.365.151-.767.191-1.155.114-.388-.078-.745-.268-1.024-.548-.28-.279-.47-.636-.548-1.024-.077-.388-.037-.79.114-1.155.152-.366.408-.678.737-.898s.715-.337 1.111-.337c.53 0 1.039.211 1.414.586s.586.884.586 1.414z" fill="#144ed0"/><path d="m428.33 292.79c0 .396-.117.782-.337 1.111s-.532.585-.898.737c-.365.151-.767.191-1.155.114-.388-.078-.744-.268-1.024-.548-.28-.279-.47-.636-.547-1.024-.078-.388-.038-.79.113-1.155.152-.366.408-.678.737-.898s.715-.337 1.111-.337c.53 0 1.039.211 1.414.586s.586.884.586 1.414z" fill="#144ed0"/><path d="m434.9 292.79c0 .396-.117.782-.337 1.111s-.532.585-.898.737c-.365.151-.767.191-1.155.114-.388-.078-.745-.268-1.024-.548-.28-.279-.471-.636-.548-1.024s-.037-.79.114-1.155c.152-.366.408-.678.737-.898s.715-.337 1.111-.337c.53 0 1.039.211 1.414.586s.586.884.586 1.414z" fill="#144ed0"/><path d="m441.48 292.79c0 .396-.117.782-.337 1.111s-.532.585-.898.737c-.365.151-.767.191-1.155.114-.388-.078-.745-.268-1.024-.548-.28-.279-.47-.636-.548-1.024-.077-.388-.037-.79.114-1.155.152-.366.408-.678.737-.898s.715-.337 1.111-.337c.53 0 1.039.211 1.414.586s.586.884.586 1.414z" fill="#144ed0"/><path d="m408.55 278.82h-1.15v15.96h1.15z" fill="#263238"/><path d="m444.58 246.15h-103.21v23.84h103.21z" fill="#37474f"/><path d="m404.46 250.09h-58.75v2.01h58.75z" fill="#455a64"/><path d="m404.46 253.58h-58.75v2.01h58.75z" fill="#455a64"/><path d="m404.46 257.07h-58.75v2.01h58.75z" fill="#455a64"/><path d="m404.46 260.55h-58.75v2.01h58.75z" fill="#455a64"/><path d="m404.46 264.04h-58.75v2.01h58.75z" fill="#455a64"/><path d="m415.17 252.09c0 .396-.117.782-.337 1.111s-.532.585-.898.737c-.365.151-.767.191-1.155.114-.388-.078-.745-.268-1.024-.548-.28-.28-.47-.636-.548-1.024-.077-.388-.037-.79.114-1.155.152-.366.408-.678.737-.898s.715-.337 1.111-.337c.53 0 1.039.211 1.414.586s.586.884.586 1.414z" fill="#144ed0"/><path d="m421.75 252.09c0 .396-.117.782-.337 1.111s-.532.585-.898.737c-.365.151-.767.191-1.155.114-.388-.078-.745-.268-1.024-.548-.28-.28-.47-.636-.548-1.024-.077-.388-.037-.79.114-1.155.152-.366.408-.678.737-.898s.715-.337 1.111-.337c.53 0 1.039.211 1.414.586s.586.884.586 1.414z" fill="#144ed0"/><path d="m428.33 252.09c0 .396-.117.782-.337 1.111s-.532.585-.898.737c-.365.151-.767.191-1.155.114-.388-.078-.744-.268-1.024-.548s-.47-.636-.547-1.024c-.078-.388-.038-.79.113-1.155.152-.366.408-.678.737-.898s.715-.337 1.111-.337c.53 0 1.039.211 1.414.586s.586.884.586 1.414z" fill="#144ed0"/><path d="m434.9 252.09c0 .396-.117.782-.337 1.111s-.532.585-.898.737c-.365.151-.767.191-1.155.114-.388-.078-.745-.268-1.024-.548-.28-.28-.471-.636-.548-1.024s-.037-.79.114-1.155c.152-.366.408-.678.737-.898s.715-.337 1.111-.337c.53 0 1.039.211 1.414.586s.586.884.586 1.414z" fill="#144ed0"/><path d="m441.48 252.09c0 .396-.117.782-.337 1.111s-.532.585-.898.737c-.365.151-.767.191-1.155.114-.388-.078-.745-.268-1.024-.548-.28-.28-.47-.636-.548-1.024-.077-.388-.037-.79.114-1.155.152-.366.408-.678.737-.898s.715-.337 1.111-.337c.53 0 1.039.211 1.414.586s.586.884.586 1.414z" fill="#144ed0"/><path d="m415.17 258.07c0 .396-.117.782-.337 1.111s-.532.585-.898.737c-.365.151-.767.191-1.155.114-.388-.078-.745-.268-1.024-.548-.28-.28-.47-.636-.548-1.024-.077-.388-.037-.79.114-1.155.152-.366.408-.678.737-.898s.715-.337 1.111-.337c.53 0 1.039.211 1.414.586s.586.884.586 1.414z" fill="#144ed0"/><path d="m421.75 258.07c0 .396-.117.782-.337 1.111s-.532.585-.898.737c-.365.151-.767.191-1.155.114-.388-.078-.745-.268-1.024-.548-.28-.28-.47-.636-.548-1.024-.077-.388-.037-.79.114-1.155.152-.366.408-.678.737-.898s.715-.337 1.111-.337c.53 0 1.039.211 1.414.586s.586.884.586 1.414z" fill="#144ed0"/><path d="m428.33 258.07c0 .396-.117.782-.337 1.111s-.532.585-.898.737c-.365.151-.767.191-1.155.114-.388-.078-.744-.268-1.024-.548s-.47-.636-.547-1.024c-.078-.388-.038-.79.113-1.155.152-.366.408-.678.737-.898s.715-.337 1.111-.337c.53 0 1.039.211 1.414.586s.586.884.586 1.414z" fill="#144ed0"/><path d="m434.9 258.07c0 .396-.117.782-.337 1.111s-.532.585-.898.737c-.365.151-.767.191-1.155.114-.388-.078-.745-.268-1.024-.548-.28-.28-.471-.636-.548-1.024s-.037-.79.114-1.155c.152-.366.408-.678.737-.898s.715-.337 1.111-.337c.53 0 1.039.211 1.414.586s.586.884.586 1.414z" fill="#144ed0"/><path d="m441.48 258.07c0 .396-.117.782-.337 1.111s-.532.585-.898.737c-.365.151-.767.191-1.155.114-.388-.078-.745-.268-1.024-.548-.28-.28-.47-.636-.548-1.024-.077-.388-.037-.79.114-1.155.152-.366.408-.678.737-.898s.715-.337 1.111-.337c.53 0 1.039.211 1.414.586s.586.884.586 1.414z" fill="#144ed0"/><path d="m415.17 264.06c0 .395-.117.782-.337 1.111s-.532.585-.898.737c-.365.151-.767.191-1.155.114-.388-.078-.745-.268-1.024-.548-.28-.28-.47-.636-.548-1.024-.077-.388-.037-.79.114-1.155.152-.366.408-.678.737-.898s.715-.337 1.111-.337c.53 0 1.039.211 1.414.586s.586.884.586 1.414z" fill="#144ed0"/><path d="m421.75 264.06c0 .395-.117.782-.337 1.111s-.532.585-.898.737c-.365.151-.767.191-1.155.114-.388-.078-.745-.268-1.024-.548-.28-.28-.47-.636-.548-1.024-.077-.388-.037-.79.114-1.155.152-.366.408-.678.737-.898s.715-.337 1.111-.337c.53 0 1.039.211 1.414.586s.586.884.586 1.414z" fill="#144ed0"/><path d="m428.33 264.06c0 .395-.117.782-.337 1.111s-.532.585-.898.737c-.365.151-.767.191-1.155.114-.388-.078-.744-.268-1.024-.548s-.47-.636-.547-1.024c-.078-.388-.038-.79.113-1.155.152-.366.408-.678.737-.898s.715-.337 1.111-.337c.53 0 1.039.211 1.414.586s.586.884.586 1.414z" fill="#144ed0"/><path d="m434.9 264.06c0 .395-.117.782-.337 1.111s-.532.585-.898.737c-.365.151-.767.191-1.155.114-.388-.078-.745-.268-1.024-.548-.28-.28-.471-.636-.548-1.024s-.037-.79.114-1.155c.152-.366.408-.678.737-.898s.715-.337 1.111-.337c.53 0 1.039.211 1.414.586s.586.884.586 1.414z" fill="#144ed0"/><path d="m441.48 264.06c0 .395-.117.782-.337 1.111s-.532.585-.898.737c-.365.151-.767.191-1.155.114-.388-.078-.745-.268-1.024-.548-.28-.28-.47-.636-.548-1.024-.077-.388-.037-.79.114-1.155.152-.366.408-.678.737-.898s.715-.337 1.111-.337c.53 0 1.039.211 1.414.586s.586.884.586 1.414z" fill="#144ed0"/><path d="m408.55 250.09h-1.15v15.96h1.15z" fill="#263238"/><path d="m444.58 217.43h-103.21v23.84h103.21z" fill="#37474f"/><path d="m404.46 221.36h-58.75v2.01h58.75z" fill="#455a64"/><path d="m404.46 224.85h-58.75v2.01h58.75z" fill="#455a64"/><path d="m404.46 228.34h-58.75v2.01h58.75z" fill="#455a64"/><path d="m404.46 231.83h-58.75v2.01h58.75z" fill="#455a64"/><path d="m404.46 235.31h-58.75v2.01h58.75z" fill="#455a64"/><path d="m415.17 223.36c0 .396-.117.782-.337 1.111s-.532.585-.898.737c-.365.151-.767.191-1.155.114-.388-.078-.745-.268-1.024-.548-.28-.28-.47-.636-.548-1.024-.077-.388-.037-.79.114-1.155.152-.366.408-.678.737-.898s.715-.337 1.111-.337c.53 0 1.039.211 1.414.586s.586.884.586 1.414z" fill="#144ed0"/><path d="m421.75 223.36c0 .396-.117.782-.337 1.111s-.532.585-.898.737c-.365.151-.767.191-1.155.114-.388-.078-.745-.268-1.024-.548-.28-.28-.47-.636-.548-1.024-.077-.388-.037-.79.114-1.155.152-.366.408-.678.737-.898s.715-.337 1.111-.337c.53 0 1.039.211 1.414.586s.586.884.586 1.414z" fill="#144ed0"/><path d="m428.33 223.36c0 .396-.117.782-.337 1.111s-.532.585-.898.737c-.365.151-.767.191-1.155.114-.388-.078-.744-.268-1.024-.548s-.47-.636-.547-1.024c-.078-.388-.038-.79.113-1.155.152-.366.408-.678.737-.898s.715-.337 1.111-.337c.53 0 1.039.211 1.414.586s.586.884.586 1.414z" fill="#144ed0"/><path d="m434.9 223.36c0 .396-.117.782-.337 1.111s-.532.585-.898.737c-.365.151-.767.191-1.155.114-.388-.078-.745-.268-1.024-.548-.28-.28-.471-.636-.548-1.024s-.037-.79.114-1.155c.152-.366.408-.678.737-.898s.715-.337 1.111-.337c.53 0 1.039.211 1.414.586s.586.884.586 1.414z" fill="#144ed0"/><path d="m441.48 223.36c0 .396-.117.782-.337 1.111s-.532.585-.898.737c-.365.151-.767.191-1.155.114-.388-.078-.745-.268-1.024-.548-.28-.28-.47-.636-.548-1.024-.077-.388-.037-.79.114-1.155.152-.366.408-.678.737-.898s.715-.337 1.111-.337c.53 0 1.039.211 1.414.586s.586.884.586 1.414z" fill="#144ed0"/><path d="m415.17 229.35c0 .396-.117.782-.337 1.111s-.532.585-.898.737c-.365.151-.767.191-1.155.114-.388-.078-.745-.268-1.024-.548-.28-.28-.47-.636-.548-1.024-.077-.388-.037-.79.114-1.155.152-.366.408-.678.737-.898s.715-.337 1.111-.337c.53 0 1.039.211 1.414.586s.586.884.586 1.414z" fill="#144ed0"/><path d="m421.75 229.35c0 .396-.117.782-.337 1.111s-.532.585-.898.737c-.365.151-.767.191-1.155.114-.388-.078-.745-.268-1.024-.548-.28-.28-.47-.636-.548-1.024-.077-.388-.037-.79.114-1.155.152-.366.408-.678.737-.898s.715-.337 1.111-.337c.53 0 1.039.211 1.414.586s.586.884.586 1.414z" fill="#144ed0"/><path d="m428.33 229.35c0 .396-.117.782-.337 1.111s-.532.585-.898.737c-.365.151-.767.191-1.155.114-.388-.078-.744-.268-1.024-.548s-.47-.636-.547-1.024c-.078-.388-.038-.79.113-1.155.152-.366.408-.678.737-.898s.715-.337 1.111-.337c.53 0 1.039.211 1.414.586s.586.884.586 1.414z" fill="#144ed0"/><path d="m434.9 229.35c0 .396-.117.782-.337 1.111s-.532.585-.898.737c-.365.151-.767.191-1.155.114-.388-.078-.745-.268-1.024-.548-.28-.28-.471-.636-.548-1.024s-.037-.79.114-1.155c.152-.366.408-.678.737-.898s.715-.337 1.111-.337c.53 0 1.039.211 1.414.586s.586.884.586 1.414z" fill="#144ed0"/><path d="m441.48 229.35c0 .396-.117.782-.337 1.111s-.532.585-.898.737c-.365.151-.767.191-1.155.114-.388-.078-.745-.268-1.024-.548-.28-.28-.47-.636-.548-1.024-.077-.388-.037-.79.114-1.155.152-.366.408-.678.737-.898s.715-.337 1.111-.337c.53 0 1.039.211 1.414.586s.586.884.586 1.414z" fill="#144ed0"/><path d="m415.17 235.33c0 .396-.117.782-.337 1.111s-.532.585-.898.737c-.365.151-.767.191-1.155.114-.388-.078-.745-.268-1.024-.548-.28-.28-.47-.636-.548-1.024-.077-.388-.037-.79.114-1.155.152-.366.408-.678.737-.898s.715-.337 1.111-.337c.53 0 1.039.211 1.414.586s.586.884.586 1.414z" fill="#144ed0"/><path d="m421.75 235.33c0 .396-.117.782-.337 1.111s-.532.585-.898.737c-.365.151-.767.191-1.155.114-.388-.078-.745-.268-1.024-.548-.28-.28-.47-.636-.548-1.024-.077-.388-.037-.79.114-1.155.152-.366.408-.678.737-.898s.715-.337 1.111-.337c.53 0 1.039.211 1.414.586s.586.884.586 1.414z" fill="#144ed0"/><path d="m428.33 235.33c0 .396-.117.782-.337 1.111s-.532.585-.898.737c-.365.151-.767.191-1.155.114-.388-.078-.744-.268-1.024-.548s-.47-.636-.547-1.024c-.078-.388-.038-.79.113-1.155.152-.366.408-.678.737-.898s.715-.337 1.111-.337c.53 0 1.039.211 1.414.586s.586.884.586 1.414z" fill="#144ed0"/><path d="m434.9 235.33c0 .396-.117.782-.337 1.111s-.532.585-.898.737c-.365.151-.767.191-1.155.114-.388-.078-.745-.268-1.024-.548-.28-.28-.471-.636-.548-1.024s-.037-.79.114-1.155c.152-.366.408-.678.737-.898s.715-.337 1.111-.337c.53 0 1.039.211 1.414.586s.586.884.586 1.414z" fill="#144ed0"/><path d="m441.48 235.33c0 .396-.117.782-.337 1.111s-.532.585-.898.737c-.365.151-.767.191-1.155.114-.388-.078-.745-.268-1.024-.548-.28-.28-.47-.636-.548-1.024-.077-.388-.037-.79.114-1.155.152-.366.408-.678.737-.898s.715-.337 1.111-.337c.53 0 1.039.211 1.414.586s.586.884.586 1.414z" fill="#144ed0"/><path d="m408.55 221.36h-1.15v15.96h1.15z" fill="#263238"/><path d="m444.58 188.7h-103.21v23.84h103.21z" fill="#37474f"/><path d="m404.46 192.64h-58.75v2.01h58.75z" fill="#455a64"/><path d="m404.46 196.12h-58.75v2.01h58.75z" fill="#455a64"/><path d="m404.46 199.61h-58.75v2.01h58.75z" fill="#455a64"/><path d="m404.46 203.1h-58.75v2.01h58.75z" fill="#455a64"/><path d="m404.46 206.59h-58.75v2.01h58.75z" fill="#455a64"/><path d="m415.17 194.63c0 .396-.117.782-.337 1.111s-.532.585-.898.737c-.365.151-.767.191-1.155.114-.388-.078-.745-.268-1.024-.548-.28-.279-.47-.636-.548-1.024-.077-.388-.037-.79.114-1.155.152-.366.408-.678.737-.898s.715-.337 1.111-.337c.53 0 1.039.211 1.414.586s.586.884.586 1.414z" fill="#144ed0"/><path d="m421.75 194.63c0 .396-.117.782-.337 1.111s-.532.585-.898.737c-.365.151-.767.191-1.155.114-.388-.078-.745-.268-1.024-.548-.28-.279-.47-.636-.548-1.024-.077-.388-.037-.79.114-1.155.152-.366.408-.678.737-.898s.715-.337 1.111-.337c.53 0 1.039.211 1.414.586s.586.884.586 1.414z" fill="#144ed0"/><path d="m428.33 194.63c0 .396-.117.782-.337 1.111s-.532.585-.898.737c-.365.151-.767.191-1.155.114-.388-.078-.744-.268-1.024-.548-.28-.279-.47-.636-.547-1.024-.078-.388-.038-.79.113-1.155.152-.366.408-.678.737-.898s.715-.337 1.111-.337c.53 0 1.039.211 1.414.586s.586.884.586 1.414z" fill="#144ed0"/><path d="m434.9 194.63c0 .396-.117.782-.337 1.111s-.532.585-.898.737c-.365.151-.767.191-1.155.114-.388-.078-.745-.268-1.024-.548-.28-.279-.471-.636-.548-1.024s-.037-.79.114-1.155c.152-.366.408-.678.737-.898s.715-.337 1.111-.337c.53 0 1.039.211 1.414.586s.586.884.586 1.414z" fill="#144ed0"/><path d="m441.48 194.63c0 .396-.117.782-.337 1.111s-.532.585-.898.737c-.365.151-.767.191-1.155.114-.388-.078-.745-.268-1.024-.548-.28-.279-.47-.636-.548-1.024-.077-.388-.037-.79.114-1.155.152-.366.408-.678.737-.898s.715-.337 1.111-.337c.53 0 1.039.211 1.414.586s.586.884.586 1.414z" fill="#144ed0"/><path d="m413.18 202.62c1.105 0 2-.895 2-2s-.895-2-2-2c-1.104 0-2 .895-2 2s.896 2 2 2z" fill="#144ed0"/><path d="m421.75 200.62c0 .396-.117.782-.337 1.111s-.532.585-.898.737c-.365.151-.767.191-1.155.114-.388-.078-.745-.268-1.024-.548-.28-.279-.47-.636-.548-1.024-.077-.388-.037-.79.114-1.155.152-.366.408-.678.737-.898s.715-.337 1.111-.337c.53 0 1.039.211 1.414.586s.586.884.586 1.414z" fill="#144ed0"/><path d="m426.33 202.62c1.105 0 2-.895 2-2s-.895-2-2-2c-1.104 0-2 .895-2 2s.896 2 2 2z" fill="#144ed0"/><path d="m434.9 200.62c0 .396-.117.782-.337 1.111s-.532.585-.898.737c-.365.151-.767.191-1.155.114-.388-.078-.745-.268-1.024-.548-.28-.279-.471-.636-.548-1.024s-.037-.79.114-1.155c.152-.366.408-.678.737-.898s.715-.337 1.111-.337c.53 0 1.039.211 1.414.586s.586.884.586 1.414z" fill="#144ed0"/><path d="m441.48 200.62c0 .396-.117.782-.337 1.111s-.532.585-.898.737c-.365.151-.767.191-1.155.114-.388-.078-.745-.268-1.024-.548-.28-.279-.47-.636-.548-1.024-.077-.388-.037-.79.114-1.155.152-.366.408-.678.737-.898s.715-.337 1.111-.337c.53 0 1.039.211 1.414.586s.586.884.586 1.414z" fill="#144ed0"/><path d="m415.17 206.6c0 .396-.117.782-.337 1.111s-.532.585-.898.737c-.365.151-.767.191-1.155.114-.388-.078-.745-.268-1.024-.548-.28-.28-.47-.636-.548-1.024-.077-.388-.037-.79.114-1.155.152-.366.408-.678.737-.898s.715-.337 1.111-.337c.53 0 1.039.211 1.414.586s.586.884.586 1.414z" fill="#144ed0"/><path d="m421.75 206.6c0 .396-.117.782-.337 1.111s-.532.585-.898.737c-.365.151-.767.191-1.155.114-.388-.078-.745-.268-1.024-.548-.28-.28-.47-.636-.548-1.024-.077-.388-.037-.79.114-1.155.152-.366.408-.678.737-.898s.715-.337 1.111-.337c.53 0 1.039.211 1.414.586s.586.884.586 1.414z" fill="#144ed0"/><path d="m428.33 206.6c0 .396-.117.782-.337 1.111s-.532.585-.898.737c-.365.151-.767.191-1.155.114-.388-.078-.744-.268-1.024-.548s-.47-.636-.547-1.024c-.078-.388-.038-.79.113-1.155.152-.366.408-.678.737-.898s.715-.337 1.111-.337c.53 0 1.039.211 1.414.586s.586.884.586 1.414z" fill="#144ed0"/><path d="m434.9 206.6c0 .396-.117.782-.337 1.111s-.532.585-.898.737c-.365.151-.767.191-1.155.114-.388-.078-.745-.268-1.024-.548-.28-.28-.471-.636-.548-1.024s-.037-.79.114-1.155c.152-.366.408-.678.737-.898s.715-.337 1.111-.337c.53 0 1.039.211 1.414.586s.586.884.586 1.414z" fill="#144ed0"/><path d="m441.48 206.6c0 .396-.117.782-.337 1.111s-.532.585-.898.737c-.365.151-.767.191-1.155.114-.388-.078-.745-.268-1.024-.548-.28-.28-.47-.636-.548-1.024-.077-.388-.037-.79.114-1.155.152-.366.408-.678.737-.898s.715-.337 1.111-.337c.53 0 1.039.211 1.414.586s.586.884.586 1.414z" fill="#144ed0"/><path d="m408.55 192.64h-1.15v15.96h1.15z" fill="#263238"/><path d="m427.74 168.86h-136.05v7.56h136.05z" fill="#37474f"/><path d="m293.05 384.07h-15.19v15.19h15.19z" fill="#263238"/><path d="m70.02 353.74h-26.56v26.56h26.56z" fill="#37474f"/><path d="m56.7401 375.88c4.8988 0 8.87-3.971 8.87-8.87s-3.9712-8.87-8.87-8.87c-4.8987 0-8.87 3.971-8.87 8.87s3.9713 8.87 8.87 8.87z" fill="#455a64"/><path d="m55.1201 363.43h-2v7.32h2z" fill="#263238"/><path d="m60.6802 363.43h-2v7.32h2z" fill="#263238"/><path d="m36.8501 421.59 53.29-.24 53.2899-.09 106.57-.17 106.57.17 53.29.09 53.29.24-53.29.25-53.29.09-106.57.16-106.57-.17-53.2899-.09z" fill="#263238"/><path d="m128.08 396.52c1 2.12-2.84 17.31-4 20.43s-5.39 20.53-7.43 21.28-11.93.54-13.33 0 0-3.51 1.61-4.55 3.54-2.63 3.54-2.63-2.89-26.89-2.35-29.9 19.36-10.32 21.96-4.63z" fill="#144ed0"/><path d="m128.08 396.52c1 2.12-2.84 17.31-4 20.43s-5.39 20.53-7.43 21.28-11.93.54-13.33 0 0-3.51 1.61-4.55 3.54-2.63 3.54-2.63-2.89-26.89-2.35-29.9 19.36-10.32 21.96-4.63z" fill="#000" opacity=".1"/><path d="m107.4 437.06c.11-.537.331-1.045.65-1.49.319-.436.7-.823 1.13-1.15.418-.33.902-.565 1.42-.69.016-.007.033-.007.05-.002.016.005.03.016.038.031.009.015.012.032.008.049-.003.017-.012.032-.026.042-.18.16-.38.3-.55.47s-.36.35-.52.53c-.328.352-.614.741-.85 1.16-.25.41-.48.83-.7 1.27s-.33.91-.5 1.37c0 .027-.01.052-.029.071-.019.018-.044.029-.071.029-.026 0-.052-.011-.071-.029-.018-.019-.029-.044-.029-.071-.1-.527-.083-1.07.05-1.59z" fill="#000" opacity=".1"/><path d="m104.51 435.48c.551-.949 1.397-1.69 2.41-2.11.07 0 .14.05.08.1-.764.603-1.415 1.338-1.92 2.17-.252.425-.416.896-.481 1.386-.066.49-.031.988.101 1.464 0 0 0 .06-.07 0-.291-.443-.457-.958-.478-1.488-.021-.531.103-1.057.358-1.522z" fill="#000" opacity=".1"/><path d="m106.94 416 13.59 12.86c1.5-4.93 2.9-10.29 3.51-11.88 1.2-3.12 5-18.31 4-20.43-2.61-5.69-21.48 1.62-22 4.63-.21 1.39.29 8.09.9 14.82z" fill="#000" opacity=".1"/><path d="m179.41 411.72c.55.52 5.9-4.54 6.72-6.91s-2.6-9.06-2-10.2 3.55-2.05 5.06-.3 5.38 11.34 4.58 15.44-9.03 13.25-9.9 13.25-4.46-11.28-4.46-11.28z" fill="#144ed0"/><path d="m179.41 411.72s3.61 11.2 4.46 11.25c.63 0 5.21-4.86 7.95-9.09l-7.49-6.31c-1.89 2.23-4.54 4.51-4.92 4.15z" fill="#000" opacity=".1"/><path d="m149.19 365.46h-44.4s-3.3 29.24-2.94 33.11 19.87 32.54 25.92 36.24 40.83 3.88 49.29 2c6.58-1.45 12.07-9.85 9.34-22.78-1.19-5.66-16.61-19.14-18.76-21.72s-18.45-26.85-18.45-26.85z" fill="#c7c7c7"/><path d="m101.85 398.57c.36 3.87 19.87 32.54 25.93 36.24s40.82 3.88 49.29 2c6.57-1.45 12.07-9.85 9.33-22.79-1.19-5.65-16.6-19.13-18.75-21.71-1.32-1.58-7.94-11.3-12.88-18.6-3.13-4.62-5.58-8.27-5.58-8.27h-44.4s-.83 7.34-1.61 15.15-1.51 16.05-1.33 17.98z" fill="#144ed0"/><path d="m103.18 380.61c23.86 7.36 45.08-3.11 51.59-6.88-3.13-4.62-5.58-8.27-5.58-8.27h-44.4s-.79 7.34-1.61 15.15z" fill="#000" opacity=".1"/><path d="m177.91 412.64s-12.22-7.67-20.79-6.29-11.6 19-7.49 28.89c0 0-7.82 2.32-7.82 6.1 0 2.15 4.47 2.84 10.91 2.68s19.26-.28 19.54-1.9c.06-1.335-.23-2.662-.84-3.85 0 0 11.57-1.3 13.84-9s-5.42-15.34-7.35-16.63z" fill="#144ed0"/><path d="m161.22 436.11c3.275 1.341 6.755 2.112 10.29 2.28.07 0 .09.12 0 .13-3.604.356-7.227-.461-10.33-2.33-.04-.02-.01-.11.04-.08z" fill="#000" opacity=".1"/><path d="m146.84 444.07c.426-1.439 1.375-2.666 2.66-3.44.698-.482 1.458-.866 2.26-1.14.92-.31 1.86-.48 2.79-.77.07 0 .13.09 0 .12-.795.288-1.564.642-2.3 1.06-.746.386-1.471.813-2.17 1.28-1.151.836-2.164 1.848-3 3-.03.13-.28.06-.24-.11z" fill="#000" opacity=".1"/><path d="m148.42 438c.016 0 .031.006.043.018.011.011.017.026.017.042s-.006.031-.017.042c-.012.012-.027.018-.043.018-2.366.988-4.254 2.861-5.26 5.22 0 .1-.22.1-.2 0 .195-1.367.836-2.632 1.823-3.597.988-.966 2.266-1.578 3.637-1.743z" fill="#000" opacity=".1"/><path d="m142.43 400.29c1 2.11-2.84 17.3-4 20.42s-5.43 20.53-7.43 21.29-11.93.54-13.33 0 0-3.51 1.61-4.55 3.53-2.63 3.53-2.63-2.88-26.89-2.35-29.9 19.37-10.33 21.97-4.63z" fill="#144ed0"/><path d="m135.77 429.15c.91-2.74 2.1-5.4 3-8.13 0-.11.21-.06.17.05-.7 2.2-1.23 4.46-1.89 6.68.1-.15.19-.31.28-.46.657-.841 1.186-1.775 1.57-2.77.007-.024.023-.044.044-.056.022-.013.047-.016.071-.009s.044.022.056.044c.013.022.016.047.009.071-.145.468-.343.917-.59 1.34-.26.49-.53 1-.8 1.47s-.71 1.26-1.1 1.87v.13c-.85 2.763-1.851 5.477-3 8.13-.015.024-.037.042-.064.052-.026.01-.055.011-.082.004-.027-.008-.051-.025-.068-.048-.017-.022-.026-.05-.026-.078.667-2.802 1.475-5.569 2.42-8.29z" fill="#000" opacity=".1"/><path d="m120.05 409.2c0-.05.11-.07.12 0 .29 2 .41 4.1.62 6.15s.47 4.25.7 6.38c.47 4.23 1.18 8.45 1.52 12.69 0 .18-.31.2-.36 0-1.017-4.078-1.703-8.232-2.05-12.42-.22-2.08-.35-4.16-.45-6.24-.155-2.183-.188-4.373-.1-6.56z" fill="#000" opacity=".1"/><path d="m121.27 440.61c.102-.538.32-1.046.64-1.49.32-.438.704-.826 1.14-1.15.416-.334.901-.57 1.42-.69.015-.003.03 0 .044.006.013.007.024.018.031.032.007.013.009.028.006.043s-.01.029-.021.039c-.18.17-.38.3-.55.47l-.52.53c-.323.356-.608.745-.85 1.16-.24.41-.48.83-.69 1.27s-.34.91-.51 1.37c-.006.02-.019.037-.036.05-.017.012-.038.019-.059.019s-.041-.007-.059-.019c-.017-.013-.029-.03-.036-.05-.105-.527-.088-1.071.05-1.59z" fill="#000" opacity=".1"/><path d="m118.37 439c.553-.95 1.403-1.692 2.42-2.11.06 0 .13.05.07.1-.764.6-1.412 1.336-1.91 2.17-.257.423-.424.894-.49 1.385-.065.491-.028.99.11 1.465 0 0 0 .06-.07 0-.293-.443-.46-.957-.483-1.487s.099-1.057.353-1.523z" fill="#000" opacity=".1"/><path d="m121.78 324.81c.48-1.76-3.9-8-5.57-10.05s-10.86-5.22-13.8-3.61c-1.15.63-3.2898 5.05-6.1798 8.88-4.48 5.94-9.7 12.17-7.8 13.84 4.6 4.07 15.1098-2.35 18.5198-4.5s6.52-4.78 7.35-4.69c1.1.12 3.4 1.86 4.33 2 .653.044 1.303-.111 1.866-.445.562-.334 1.01-.831 1.284-1.425z" fill="#144ed0"/><path d="m121.78 324.81c.48-1.76-3.9-8-5.57-10.05s-10.86-5.22-13.8-3.61c-1.15.63-3.2898 5.05-6.1798 8.88-4.48 5.94-9.7 12.17-7.8 13.84 4.6 4.07 15.1098-2.35 18.5198-4.5s6.52-4.78 7.35-4.69c1.1.12 3.4 1.86 4.33 2 .653.044 1.303-.111 1.866-.445.562-.334 1.01-.831 1.284-1.425z" fill="#000" opacity=".1"/><path d="m143 318.59c10.73 6.42 15.49 23.48 15.78 26.21.24 2.22 5.35 10.1 4.44 18.57-.59 5.44-10.37 12.67-18.33 12.6-1.46 0-13.85 4.48-24.32 3.76s-18.39-8.15-18.7-8.78-8.8697-1.85-9.3697-10.6c-.85-14 13.3997-37.76 17.4697-41 6.75-5.35 25.69-5.12 33.03-.76z" fill="#144ed0"/><path d="m137.9 326c-.2-1.9 5.37-7.61 7.45-9.5s12.14-3.61 14.92-1.45c1.09.85 2.58 5.78 4.94 10.24 3.65 6.91 8 14.24 5.8 15.66-5.46 3.46-15.3-4.94-18.48-7.75s-6-6-6.85-6.08c-1.16-.06-3.84 1.36-4.81 1.31-.681-.06-1.329-.324-1.859-.758-.53-.433-.917-1.016-1.111-1.672z" fill="#144ed0"/><path d="m137.9 326c-.2-1.9 5.37-7.61 7.45-9.5s12.14-3.61 14.92-1.45c1.09.85 2.58 5.78 4.94 10.24 3.65 6.91 8 14.24 5.8 15.66-5.46 3.46-15.3-4.94-18.48-7.75s-6-6-6.85-6.08c-1.16-.06-3.84 1.36-4.81 1.31-.681-.06-1.329-.324-1.859-.758-.53-.433-.917-1.016-1.111-1.672z" fill="#000" opacity=".1"/><path d="m118.3 349.93c6.58.06 9.58 7.11 10.37 8.94s4.86 6 5 10.43-8.23 9.3-17 7.75-13.4-6.49-13.35-10.95c0-3.59 3.42-6.7 3.8-7.64s5.19-8.59 11.18-8.53z" fill="#000" opacity=".1"/><path d="m134.48 362.31c.88 1.001 1.623 2.114 2.21 3.31.612 1.204 1.047 2.491 1.29 3.82.278 1.378.128 2.809-.43 4.1-.301.637-.738 1.2-1.28 1.65-.538.409-1.144.721-1.79.92 1.083-.666 1.911-1.677 2.35-2.87.354-1.181.409-2.432.16-3.64-.217-1.252-.552-2.481-1-3.67-.47-1.21-.99-2.42-1.51-3.62z" fill="#000" opacity=".1"/><path d="m104.33 359.68c-.57.71-1.11 1.4-1.61 2.1-.493.684-.918 1.414-1.27 2.18-.329.747-.525 1.545-.58 2.36.01.858.169 1.707.47 2.51-.669-.665-1.107-1.527-1.25-2.46-.0983-.96.057-1.929.45-2.81.794-1.681 2.128-3.048 3.79-3.88z" fill="#000" opacity=".1"/><path d="m207.14 453.86c-10.77 0-22.66-.19-34.61-.41-6.16-.11-11-.2-14.06-.2-15.53 0-20-20-24.32-39.26-.6-2.69-1.2-5.38-1.83-8-1.24-5.17-2.25-10.38-3.24-15.43-3-15.61-5.67-29.08-12.55-29.82-9.09-1-17.1796 12.62-20.1296 33.83l-2-.27c3.11-22.36 12.0796-36.66 22.3196-35.55 8.35.89 11.11 15 14.3 31.43 1 5 2 10.22 3.22 15.34.64 2.65 1.24 5.36 1.85 8.06 4.34 19.38 8.44 37.69 22.36 37.69 3.05 0 7.93.09 14.1.2 13.52.26 32 .6 47.7.29 25.42-.5 28.43-2.5 28.74-3.11 0-4.16-26.84-9.16-36.94-11.05s-10.6-2-10.49-3.23 1.35-1.13 3.25-1.13h41.94c13.15 0 17.39-18.92 19.93-30.23.435-2.428 1.081-4.814 1.93-7.13 2.94-6.12 10.38-5.23 10.69-5.19l-.26 2c-.26 0-6.32-.74-8.63 4.07-.768 2.183-1.363 4.423-1.78 6.7-2.67 11.89-7.12 31.79-21.88 31.79h-36.4l2.09.39c24.42 4.56 38.56 8.17 38.56 13.1-.004.269-.064.534-.175.778-.112.245-.274.463-.475.642-2.97 2.89-20.64 3.7-43.21 3.7z" fill="#263238"/><path d="m101.752 393.102-12.2583-.735-.441 7.357 12.2583.735z" fill="#455a64"/><path d="m99.5745 390.635-7.6463-.458-.14 2.336 7.6463.458z" fill="#37474f"/><path d="m93.1168 399.975-1.4474-.086-.3362 5.609 1.4474.087z" fill="#144ed0"/><path d="m98.6571 400.296-1.4374-.086-.3362 5.61 1.4374.086z" fill="#144ed0"/><path d="m283.05 385.53v12.28h5.37v-12.28z" fill="#455a64"/><path d="m278.72 387.84v7.66h4.34v-7.66z" fill="#37474f"/><path d="m110 360.6s2.61 3 3.62 2.38 3.54-6.58 3.54-6.58.61 7.56 2.56 7.77 5.29-2.78 5.29-2.78l-7.89-5.47z" fill="#144ed0"/><path d="m110 360.6s2.61 3 3.62 2.38 3.54-6.58 3.54-6.58.61 7.56 2.56 7.77 5.29-2.78 5.29-2.78l-7.89-5.47z" fill="#000" opacity=".1"/><path d="m148.65 351.21c.777-2.433 1.05-4.998.8-7.54-.112-1.315-.419-2.605-.91-3.83-.267-.631-.602-1.232-1-1.79-.382-.578-.832-1.108-1.34-1.58-.254-.236-.524-.453-.81-.65-.29-.2-.59-.36-.88-.54l-.45-.25-.47-.19c-.325-.141-.659-.261-1-.36-1.297-.381-2.654-.51-4-.38-2.575.245-5.029 1.212-7.08 2.79 2.277-.867 4.694-1.311 7.13-1.31 1.149.015 2.287.217 3.37.6.27.08.52.23.78.33l.38.17.36.23c.23.15.48.28.71.44.222.159.432.332.63.52.825.754 1.485 1.67 1.94 2.69.494 1.063.86 2.181 1.09 3.33.5 2.408.751 4.861.75 7.32z" fill="#000" opacity=".1"/><path d="m99.8703 346.1c.1079-2.08.4437-4.143.9997-6.15.479-1.861 1.528-3.526 3-4.76.369-.269.765-.501 1.18-.69.405-.176.833-.294 1.27-.35.962-.109 1.934-.089 2.89.06 2.058.365 4.084.889 6.06 1.57-.829-.7-1.731-1.31-2.69-1.82-.48-.25-1-.48-1.48-.7-.513-.207-1.037-.387-1.57-.54-1.106-.34-2.266-.469-3.42-.38-.62.045-1.228.194-1.8.44-.554.237-1.078.539-1.56.9-.947.722-1.719 1.648-2.26 2.71-.5033 1.016-.8409 2.107-.9997 3.23-.3521 2.162-.2223 4.374.38 6.48z" fill="#000" opacity=".1"/><path d="m132.36 348.07c0-.11.26.15.25.28-.24 3 0 6.5 3 7.63.09 0 .07.19 0 .17-3.67-.63-4-5.26-3.25-8.08z" fill="#263238"/><path d="m135.46 345.05c5.34-.14 5.33 9.61.38 9.74s-4.84-9.63-.38-9.74z" fill="#263238"/><path d="m111.73 345.7c0-.11-.27.12-.28.25-.18 3-1 6.43-4 7.14-.09 0-.1.17 0 .17 3.67-.12 4.64-4.66 4.28-7.56z" fill="#263238"/><path d="m109.09 342.28c-5.26-.88-6.62 8.78-1.74 9.59s6.16-8.87 1.74-9.59z" fill="#263238"/><path d="m116.91 356.12c1 .31 7.54-1.77 7-3.77-.55-2.16-9.81-2.67-11-1.27s3.01 4.72 4 5.04z" fill="#263238"/><path d="m125.13 361.29c-1.052.795-2.173 1.495-3.35 2.09-.562.302-1.183.479-1.82.52-.38.07-.7-.44-.92-.93-.399-1.028-.677-2.098-.83-3.19-.2-1.09-.31-2.21-.43-3.3l-.31-3-.91 2.95c-.28.91-.61 1.82-.94 2.73-.331.906-.726 1.788-1.18 2.64-.111.212-.241.413-.39.6-.121.188-.278.35-.46.48-.171.082-.365.103-.55.06-.251-.07-.493-.171-.72-.3-.896-.582-1.695-1.301-2.37-2.13.484.953 1.166 1.791 2 2.46.261.202.556.358.87.46.193.048.391.075.59.08.222.001.442-.05.64-.15.28-.155.531-.358.74-.6.182-.205.349-.422.5-.65.558-.851 1.037-1.751 1.43-2.69.4-.91.74-1.83 1-2.76l-1.23-.09c.089 1.131.243 2.256.46 3.37.111.567.251 1.128.42 1.68.165.578.39 1.138.67 1.67.156.3.355.577.59.82.152.156.332.281.53.37.129.062.268.103.41.12.123.015.247.015.37 0 .771-.082 1.511-.346 2.16-.77 1.126-.698 2.146-1.553 3.03-2.54z" fill="#263238"/><path d="m74.8999 395.89c3.9717-.232 7.9567.041 11.86.81-3.9717.23-7.9566-.042-11.86-.81z" fill="#263238"/><path d="m103.69 402.22c1.876.652 3.703 1.434 5.47 2.34 1.78.876 3.494 1.878 5.13 3-3.745-1.329-7.307-3.127-10.6-5.35z" fill="#263238"/><path d="m81.25 416c1.9675-3.457 4.3667-6.649 7.14-9.5-.9681 1.743-2.0609 3.414-3.27 5-1.181 1.59-2.4743 3.094-3.87 4.5z" fill="#263238"/><path d="m70 384.07c1.55.49 3.06 1.05 4.56 1.63s3 1.2 4.48 1.83 3 1.28 4.41 2 2.92 1.39 4.34 2.17c-1.55-.5-3.06-1.06-4.56-1.64s-3-1.2-4.48-1.83-3-1.28-4.41-2-2.91-1.39-4.34-2.16z" fill="#263238"/><path d="m105.13 392.93c1.393-.7 2.845-1.276 4.34-1.72 1.483-.471 3.006-.806 4.55-1-2.794 1.392-5.797 2.314-8.89 2.73z" fill="#263238"/><path d="m90.7498 387.87c-.82-1.3-1.56-2.63-2.29-4s-1.43-2.7-2.12-4.07-1.35-2.74-2-4.14-1.25-2.79-1.79-4.23c.82 1.3 1.57 2.64 2.3 4s1.43 2.7 2.12 4.06 1.34 2.74 2 4.14 1.24 2.8 1.78 4.24z" fill="#263238"/><path d="m111 419.5c-.89-1-1.72-2.09-2.53-3.16s-1.59-2.18-2.37-3.28-1.51-2.23-2.22-3.38-1.42-2.3-2.06-3.49c.89 1 1.72 2.09 2.53 3.16s1.6 2.18 2.37 3.28 1.51 2.23 2.22 3.38 1.42 2.29 2.06 3.49z" fill="#263238"/><path d="m379.94 168.86h-82.66l-6.4-56.14h82.66z" fill="#a6a6a6"/><path d="m375.44 165.1h-74.51l-5.54-48.61h74.51z" fill="#fff"/><path d="m329.42 142.06-1.19 1.42-11.72-10.12 1.19-1.42z" fill="#144ed0"/><path d="m326.4 131.94 1.64 1.42-8.51 10.12-1.64-1.42z" fill="#144ed0"/><path d="m354.48 142.06-1.19 1.42-11.72-10.12 1.19-1.42z" fill="#144ed0"/><path d="m351.46 131.94 1.64 1.42-8.51 10.12-1.64-1.42z" fill="#144ed0"/><path d="m315.01 151.79-.32-2h45.43l.32 2z" fill="#144ed0"/><path d="m404.2 165.1h-106.34v3.77h106.34z" fill="#a6a6a6"/><path d="m413.18 165.1h-92.22v3.77h92.22z" fill="#c7c7c7"/><path d="m370.17 118.85-.27-2.36h-74.51l.27 2.36z" fill="#263238"/><path d="m301.66 117.67c.012.152.078.294.186.4.109.107.252.171.404.18.071-.001.14-.018.203-.05.064-.031.119-.076.163-.132.044-.055.076-.12.092-.188.016-.069.017-.141.002-.21-.01-.153-.075-.298-.184-.407-.108-.108-.253-.174-.406-.183-.071.003-.141.021-.204.054-.064.032-.119.078-.163.134s-.075.121-.091.191c-.016.069-.017.141-.002.211z" fill="#c7c7c7"/><path d="m299.5 117.67c.014.152.082.295.192.401.111.107.255.17.408.179.07-.003.139-.021.201-.053.063-.032.118-.077.161-.132.044-.055.075-.119.092-.187s.019-.139.006-.208c-.012-.153-.077-.296-.186-.404-.108-.109-.251-.175-.404-.186-.071.003-.141.021-.205.054-.064.032-.12.078-.164.134-.045.056-.077.121-.094.19-.018.069-.02.142-.007.212z" fill="#fff"/><path d="m297.35 117.67c.012.152.078.294.186.4.109.107.252.171.404.18.07-.001.14-.018.203-.05.064-.031.119-.076.163-.132.044-.055.076-.12.092-.188.016-.069.016-.141.002-.21-.01-.153-.075-.298-.184-.407-.108-.108-.253-.174-.406-.183-.071.003-.141.021-.204.054-.064.032-.119.078-.163.134s-.075.121-.091.191c-.016.069-.017.141-.002.211z" fill="#144ed0"/><path d="m276.276 99v-26.1818h17.642v4.5639h-12.107v6.2386h11.199v4.564h-11.199v6.2514h12.158v4.5639zm22.043 0v-26.1818h10.329c1.977 0 3.665.3537 5.063 1.0611 1.406.6988 2.475 1.6917 3.208 2.9787.742 1.2784 1.113 2.7826 1.113 4.5127 0 1.7387-.375 3.2344-1.125 4.4873-.75 1.2443-1.837 2.1988-3.26 2.8636-1.415.6648-3.128.9972-5.14.9972h-6.916v-4.4489h6.022c1.056 0 1.934-.1449 2.633-.4347.699-.2897 1.219-.7244 1.56-1.304.349-.5795.524-1.2997.524-2.1605 0-.8693-.175-1.6022-.524-2.1988-.341-.5966-.865-1.0483-1.573-1.3551-.699-.3154-1.581-.473-2.646-.473h-3.733v21.6562zm14.139-11.9148 6.507 11.9148h-6.111l-6.366-11.9148zm9.486 11.9148v-26.1818h10.329c1.977 0 3.665.3537 5.063 1.0611 1.406.6988 2.475 1.6917 3.208 2.9787.742 1.2784 1.113 2.7826 1.113 4.5127 0 1.7387-.375 3.2344-1.125 4.4873-.75 1.2443-1.837 2.1988-3.26 2.8636-1.415.6648-3.128.9972-5.14.9972h-6.916v-4.4489h6.022c1.056 0 1.934-.1449 2.633-.4347.699-.2897 1.219-.7244 1.56-1.304.349-.5795.524-1.2997.524-2.1605 0-.8693-.175-1.6022-.524-2.1988-.341-.5966-.865-1.0483-1.573-1.3551-.699-.3154-1.581-.473-2.646-.473h-3.733v21.6562zm14.139-11.9148 6.507 11.9148h-6.111l-6.366-11.9148zm33.545-1.1761c0 2.8551-.541 5.2841-1.623 7.2869-1.074 2.0029-2.54 3.5327-4.398 4.5895-1.85 1.0483-3.929 1.5725-6.239 1.5725-2.326 0-4.415-.5285-6.264-1.5853s-3.311-2.5866-4.385-4.5895c-1.074-2.0028-1.611-4.4275-1.611-7.2741 0-2.8551.537-5.2841 1.611-7.2869 1.074-2.0029 2.536-3.5285 4.385-4.5767 1.849-1.0569 3.938-1.5853 6.264-1.5853 2.31 0 4.389.5284 6.239 1.5853 1.858 1.0482 3.324 2.5738 4.398 4.5767 1.082 2.0028 1.623 4.4318 1.623 7.2869zm-5.612 0c0-1.8494-.277-3.4091-.831-4.679-.545-1.2699-1.317-2.2329-2.314-2.8892-.997-.6562-2.165-.9844-3.503-.9844s-2.505.3282-3.503.9844c-.997.6563-1.772 1.6193-2.326 2.8892-.546 1.2699-.818 2.8296-.818 4.679s.272 3.4091.818 4.679c.554 1.2699 1.329 2.2329 2.326 2.8892.998.6562 2.165.9843 3.503.9843s2.506-.3281 3.503-.9843c.997-.6563 1.769-1.6193 2.314-2.8892.554-1.2699.831-2.8296.831-4.679zm9.713 13.0909v-26.1818h10.329c1.978 0 3.665.3537 5.063 1.0611 1.406.6988 2.476 1.6917 3.209 2.9787.741 1.2784 1.112 2.7826 1.112 4.5127 0 1.7387-.375 3.2344-1.125 4.4873-.75 1.2443-1.837 2.1988-3.26 2.8636-1.415.6648-3.128.9972-5.139.9972h-6.917v-4.4489h6.022c1.057 0 1.934-.1449 2.633-.4347.699-.2897 1.219-.7244 1.56-1.304.349-.5795.524-1.2997.524-2.1605 0-.8693-.175-1.6022-.524-2.1988-.341-.5966-.865-1.0483-1.573-1.3551-.698-.3154-1.58-.473-2.646-.473h-3.733v21.6562zm14.139-11.9148 6.507 11.9148h-6.111l-6.366-11.9148z" fill="#144ed0"/></svg>